# xmcd
# Copyright (C) 1995-1998 Ti Kan
#
# Track frame offsets:
#       150
#       13389
#       29034
#       44565
#       63472
#       79701
#       96069
#       110811
#       130885
#       147443
#       162394
#       176979
#       198944
#
# Disc length: 2855 seconds
#
# Revision: 0
# Processed by: cddbd v1.5.2PL0 Copyright (c) Steve Scherf et al.
# Submitted via: CD-Import v1.0
#
DISCID=c50b250d
DTITLE=Alterkicks - Do Everything I Taught You
DYEAR=2007
DGENRE=
TTITLE0=My Downfall
TTITLE1=Oh Honey
TTITLE2=Decisions
TTITLE3=The Cannibal Hiking Disaster
TTITLE4=Do Everything I Taught You
TTITLE5=Wait Until The Ice Breaks
TTITLE6=Wind Up In Jail
TTITLE7=Good Luck
TTITLE8=On A Holiday
TTITLE9=May
TTITLE10=The Ballad Of Silver Robbins
TTITLE11=Reach Out
TTITLE12=Do Me A Favour
EXTD=
EXTT0=
EXTT1=
EXTT2=
EXTT3=
EXTT4=
EXTT5=
EXTT6=
EXTT7=
EXTT8=
EXTT9=
EXTT10=
EXTT11=
EXTT12=
PLAYORDER=
